<svg id="visual" viewBox="0 0 3840 2160" width="3840" height="2160" xmlns="http://www.w3.org/2000/svg" xmlns:xlink="http://www.w3.org/1999/xlink" version="1.1"><path d="M0 1513L91.5 1482.5C183 1452 366 1391 548.8 1389.2C731.7 1387.3 914.3 1444.7 1097.2 1459.5C1280 1474.3 1463 1446.7 1645.8 1415.5C1828.7 1384.3 2011.3 1349.7 2194.2 1347.7C2377 1345.7 2560 1376.3 2742.8 1371C2925.7 1365.7 3108.3 1324.3 3291.2 1315C3474 1305.7 3657 1328.3 3748.5 1339.7L3840 1351L3840 2161L3748.5 2161C3657 2161 3474 2161 3291.2 2161C3108.3 2161 2925.7 2161 2742.8 2161C2560 2161 2377 2161 2194.2 2161C2011.3 2161 1828.7 2161 1645.8 2161C1463 2161 1280 2161 1097.2 2161C914.3 2161 731.7 2161 548.8 2161C366 2161 183 2161 91.5 2161L0 2161Z" fill="#dd74e8"></path><path d="M0 1450L91.5 1461.8C183 1473.7 366 1497.3 548.8 1478C731.7 1458.7 914.3 1396.3 1097.2 1410.7C1280 1425 1463 1516 1645.8 1519.2C1828.7 1522.3 2011.3 1437.7 2194.2 1397C2377 1356.3 2560 1359.7 2742.8 1377.2C2925.7 1394.7 3108.3 1426.3 3291.2 1457.8C3474 1489.3 3657 1520.7 3748.5 1536.3L3840 1552L3840 2161L3748.5 2161C3657 2161 3474 2161 3291.2 2161C3108.3 2161 2925.7 2161 2742.8 2161C2560 2161 2377 2161 2194.2 2161C2011.3 2161 1828.7 2161 1645.8 2161C1463 2161 1280 2161 1097.2 2161C914.3 2161 731.7 2161 548.8 2161C366 2161 183 2161 91.5 2161L0 2161Z" fill="#c15fdb"></path><path d="M0 1663L91.5 1635.2C183 1607.3 366 1551.7 548.8 1565.3C731.7 1579 914.3 1662 1097.2 1701.5C1280 1741 1463 1737 1645.8 1714.8C1828.7 1692.7 2011.3 1652.3 2194.2 1641C2377 1629.7 2560 1647.3 2742.8 1661.8C2925.7 1676.3 3108.3 1687.7 3291.2 1686.7C3474 1685.7 3657 1672.3 3748.5 1665.7L3840 1659L3840 2161L3748.5 2161C3657 2161 3474 2161 3291.2 2161C3108.3 2161 2925.7 2161 2742.8 2161C2560 2161 2377 2161 2194.2 2161C2011.3 2161 1828.7 2161 1645.8 2161C1463 2161 1280 2161 1097.2 2161C914.3 2161 731.7 2161 548.8 2161C366 2161 183 2161 91.5 2161L0 2161Z" fill="#a44acd"></path><path d="M0 1780L91.5 1756.7C183 1733.3 366 1686.7 548.8 1680.3C731.7 1674 914.3 1708 1097.2 1718.3C1280 1728.7 1463 1715.3 1645.8 1705.3C1828.7 1695.3 2011.3 1688.7 2194.2 1709.5C2377 1730.3 2560 1778.7 2742.8 1776.7C2925.7 1774.7 3108.3 1722.3 3291.2 1701C3474 1679.7 3657 1689.3 3748.5 1694.2L3840 1699L3840 2161L3748.5 2161C3657 2161 3474 2161 3291.2 2161C3108.3 2161 2925.7 2161 2742.8 2161C2560 2161 2377 2161 2194.2 2161C2011.3 2161 1828.7 2161 1645.8 2161C1463 2161 1280 2161 1097.2 2161C914.3 2161 731.7 2161 548.8 2161C366 2161 183 2161 91.5 2161L0 2161Z" fill="#8536c1"></path><path d="M0 1923L91.5 1906.7C183 1890.3 366 1857.7 548.8 1859.5C731.7 1861.3 914.3 1897.7 1097.2 1887.3C1280 1877 1463 1820 1645.8 1792.8C1828.7 1765.7 2011.3 1768.3 2194.2 1769.3C2377 1770.3 2560 1769.7 2742.8 1790.7C2925.7 1811.7 3108.3 1854.3 3291.2 1871.5C3474 1888.7 3657 1880.3 3748.5 1876.2L3840 1872L3840 2161L3748.5 2161C3657 2161 3474 2161 3291.2 2161C3108.3 2161 2925.7 2161 2742.8 2161C2560 2161 2377 2161 2194.2 2161C2011.3 2161 1828.7 2161 1645.8 2161C1463 2161 1280 2161 1097.2 2161C914.3 2161 731.7 2161 548.8 2161C366 2161 183 2161 91.5 2161L0 2161Z" fill="#6424b4"></path><path d="M0 1921L91.5 1920.5C183 1920 366 1919 548.8 1937.5C731.7 1956 914.3 1994 1097.2 2014.8C1280 2035.7 1463 2039.3 1645.8 2024.7C1828.7 2010 2011.3 1977 2194.2 1962C2377 1947 2560 1950 2742.8 1959.7C2925.7 1969.3 3108.3 1985.7 3291.2 1979.7C3474 1973.7 3657 1945.3 3748.5 1931.2L3840 1917L3840 2161L3748.5 2161C3657 2161 3474 2161 3291.2 2161C3108.3 2161 2925.7 2161 2742.8 2161C2560 2161 2377 2161 2194.2 2161C2011.3 2161 1828.7 2161 1645.8 2161C1463 2161 1280 2161 1097.2 2161C914.3 2161 731.7 2161 548.8 2161C366 2161 183 2161 91.5 2161L0 2161Z" fill="#3b12a8"></path></svg>