<svg id="visual" viewBox="0 0 1920 1080" width="1920" height="1080" xmlns="http://www.w3.org/2000/svg" xmlns:xlink="http://www.w3.org/1999/xlink" version="1.1"><path d="M0 737L35.5 719.5C71 702 142 667 213.2 659.2C284.3 651.3 355.7 670.7 426.8 677.7C498 684.7 569 679.3 640 689.8C711 700.3 782 726.7 853.2 726.5C924.3 726.3 995.7 699.7 1066.8 665.8C1138 632 1209 591 1280 591.2C1351 591.3 1422 632.7 1493.2 648C1564.3 663.3 1635.7 652.7 1706.8 631.5C1778 610.3 1849 578.7 1884.5 562.8L1920 547L1920 1081L1884.5 1081C1849 1081 1778 1081 1706.8 1081C1635.7 1081 1564.3 1081 1493.2 1081C1422 1081 1351 1081 1280 1081C1209 1081 1138 1081 1066.8 1081C995.7 1081 924.3 1081 853.2 1081C782 1081 711 1081 640 1081C569 1081 498 1081 426.8 1081C355.7 1081 284.3 1081 213.2 1081C142 1081 71 1081 35.5 1081L0 1081Z" fill="#d7a9dc"></path><path d="M0 661L35.5 664.8C71 668.7 142 676.3 213.2 673.8C284.3 671.3 355.7 658.7 426.8 672.3C498 686 569 726 640 748.3C711 770.7 782 775.3 853.2 760C924.3 744.7 995.7 709.3 1066.8 693.5C1138 677.7 1209 681.3 1280 688.5C1351 695.7 1422 706.3 1493.2 713.3C1564.3 720.3 1635.7 723.7 1706.8 723C1778 722.3 1849 717.7 1884.5 715.3L1920 713L1920 1081L1884.5 1081C1849 1081 1778 1081 1706.8 1081C1635.7 1081 1564.3 1081 1493.2 1081C1422 1081 1351 1081 1280 1081C1209 1081 1138 1081 1066.8 1081C995.7 1081 924.3 1081 853.2 1081C782 1081 711 1081 640 1081C569 1081 498 1081 426.8 1081C355.7 1081 284.3 1081 213.2 1081C142 1081 71 1081 35.5 1081L0 1081Z" fill="#b779d0"></path><path d="M0 831L35.5 839.8C71 848.7 142 866.3 213.2 861.2C284.3 856 355.7 828 426.8 808C498 788 569 776 640 784.7C711 793.3 782 822.7 853.2 836.5C924.3 850.3 995.7 848.7 1066.8 834.5C1138 820.3 1209 793.7 1280 789.7C1351 785.7 1422 804.3 1493.2 821.7C1564.3 839 1635.7 855 1706.8 866.8C1778 878.7 1849 886.3 1884.5 890.2L1920 894L1920 1081L1884.5 1081C1849 1081 1778 1081 1706.8 1081C1635.7 1081 1564.3 1081 1493.2 1081C1422 1081 1351 1081 1280 1081C1209 1081 1138 1081 1066.8 1081C995.7 1081 924.3 1081 853.2 1081C782 1081 711 1081 640 1081C569 1081 498 1081 426.8 1081C355.7 1081 284.3 1081 213.2 1081C142 1081 71 1081 35.5 1081L0 1081Z" fill="#8c4cc8"></path><path d="M0 978L35.5 970C71 962 142 946 213.2 945C284.3 944 355.7 958 426.8 962.5C498 967 569 962 640 951.7C711 941.3 782 925.7 853.2 927.2C924.3 928.7 995.7 947.3 1066.8 956.2C1138 965 1209 964 1280 959.3C1351 954.7 1422 946.3 1493.2 934C1564.3 921.7 1635.7 905.3 1706.8 895.7C1778 886 1849 883 1884.5 881.5L1920 880L1920 1081L1884.5 1081C1849 1081 1778 1081 1706.8 1081C1635.7 1081 1564.3 1081 1493.2 1081C1422 1081 1351 1081 1280 1081C1209 1081 1138 1081 1066.8 1081C995.7 1081 924.3 1081 853.2 1081C782 1081 711 1081 640 1081C569 1081 498 1081 426.8 1081C355.7 1081 284.3 1081 213.2 1081C142 1081 71 1081 35.5 1081L0 1081Z" fill="#4d22c2"></path></svg>