<svg id="visual" viewBox="0 0 1920 1080" width="1920" height="1080" xmlns="http://www.w3.org/2000/svg" xmlns:xlink="http://www.w3.org/1999/xlink" version="1.1"><path d="M0 648L45.7 627.7C91.3 607.3 182.7 566.7 274.2 565.5C365.7 564.3 457.3 602.7 548.8 612.5C640.3 622.3 731.7 603.7 823 582.8C914.3 562 1005.7 539 1097 537.7C1188.3 536.3 1279.7 556.7 1371.2 553.2C1462.7 549.7 1554.3 522.3 1645.8 516.3C1737.3 510.3 1828.7 525.7 1874.3 533.3L1920 541L1920 1081L1874.3 1081C1828.7 1081 1737.3 1081 1645.8 1081C1554.3 1081 1462.7 1081 1371.2 1081C1279.7 1081 1188.3 1081 1097 1081C1005.7 1081 914.3 1081 823 1081C731.7 1081 640.3 1081 548.8 1081C457.3 1081 365.7 1081 274.2 1081C182.7 1081 91.3 1081 45.7 1081L0 1081Z" fill="#dd74e8"></path><path d="M0 606L45.7 614C91.3 622 182.7 638 274.2 625.2C365.7 612.3 457.3 570.7 548.8 580.2C640.3 589.7 731.7 650.3 823 652.5C914.3 654.7 1005.7 598.3 1097 571.2C1188.3 544 1279.7 546 1371.2 557.5C1462.7 569 1554.3 590 1645.8 611C1737.3 632 1828.7 653 1874.3 663.5L1920 674L1920 1081L1874.3 1081C1828.7 1081 1737.3 1081 1645.8 1081C1554.3 1081 1462.7 1081 1371.2 1081C1279.7 1081 1188.3 1081 1097 1081C1005.7 1081 914.3 1081 823 1081C731.7 1081 640.3 1081 548.8 1081C457.3 1081 365.7 1081 274.2 1081C182.7 1081 91.3 1081 45.7 1081L0 1081Z" fill="#c15fdb"></path><path d="M0 748L45.7 729.5C91.3 711 182.7 674 274.2 683.2C365.7 692.3 457.3 747.7 548.8 774C640.3 800.3 731.7 797.7 823 782.8C914.3 768 1005.7 741 1097 733.5C1188.3 726 1279.7 738 1371.2 747.7C1462.7 757.3 1554.3 764.7 1645.8 764C1737.3 763.3 1828.7 754.7 1874.3 750.3L1920 746L1920 1081L1874.3 1081C1828.7 1081 1737.3 1081 1645.8 1081C1554.3 1081 1462.7 1081 1371.2 1081C1279.7 1081 1188.3 1081 1097 1081C1005.7 1081 914.3 1081 823 1081C731.7 1081 640.3 1081 548.8 1081C457.3 1081 365.7 1081 274.2 1081C182.7 1081 91.3 1081 45.7 1081L0 1081Z" fill="#a44acd"></path><path d="M0 826L45.7 810.5C91.3 795 182.7 764 274.2 759.8C365.7 755.7 457.3 778.3 548.8 785.2C640.3 792 731.7 783 823 776.3C914.3 769.7 1005.7 765.3 1097 779.3C1188.3 793.3 1279.7 825.7 1371.2 824.3C1462.7 823 1554.3 788 1645.8 773.7C1737.3 759.3 1828.7 765.7 1874.3 768.8L1920 772L1920 1081L1874.3 1081C1828.7 1081 1737.3 1081 1645.8 1081C1554.3 1081 1462.7 1081 1371.2 1081C1279.7 1081 1188.3 1081 1097 1081C1005.7 1081 914.3 1081 823 1081C731.7 1081 640.3 1081 548.8 1081C457.3 1081 365.7 1081 274.2 1081C182.7 1081 91.3 1081 45.7 1081L0 1081Z" fill="#8536c1"></path><path d="M0 922L45.7 911C91.3 900 182.7 878 274.2 879.2C365.7 880.3 457.3 904.7 548.8 897.8C640.3 891 731.7 853 823 834.8C914.3 816.7 1005.7 818.3 1097 819C1188.3 819.7 1279.7 819.3 1371.2 833.3C1462.7 847.3 1554.3 875.7 1645.8 887.2C1737.3 898.7 1828.7 893.3 1874.3 890.7L1920 888L1920 1081L1874.3 1081C1828.7 1081 1737.3 1081 1645.8 1081C1554.3 1081 1462.7 1081 1371.2 1081C1279.7 1081 1188.3 1081 1097 1081C1005.7 1081 914.3 1081 823 1081C731.7 1081 640.3 1081 548.8 1081C457.3 1081 365.7 1081 274.2 1081C182.7 1081 91.3 1081 45.7 1081L0 1081Z" fill="#6424b4"></path><path d="M0 921L45.7 920.7C91.3 920.3 182.7 919.7 274.2 931.8C365.7 944 457.3 969 548.8 982.8C640.3 996.7 731.7 999.3 823 989.5C914.3 979.7 1005.7 957.3 1097 947.3C1188.3 937.3 1279.7 939.7 1371.2 946.2C1462.7 952.7 1554.3 963.3 1645.8 959.2C1737.3 955 1828.7 936 1874.3 926.5L1920 917L1920 1081L1874.3 1081C1828.7 1081 1737.3 1081 1645.8 1081C1554.3 1081 1462.7 1081 1371.2 1081C1279.7 1081 1188.3 1081 1097 1081C1005.7 1081 914.3 1081 823 1081C731.7 1081 640.3 1081 548.8 1081C457.3 1081 365.7 1081 274.2 1081C182.7 1081 91.3 1081 45.7 1081L0 1081Z" fill="#3b12a8"></path></svg>