<svg id="visual" viewBox="0 0 1920 1080" width="1920" height="1080" xmlns="http://www.w3.org/2000/svg" xmlns:xlink="http://www.w3.org/1999/xlink" version="1.1"><path d="M0 756L45.7 740.7C91.3 725.3 182.7 694.7 274.2 693.8C365.7 693 457.3 722 548.8 729.5C640.3 737 731.7 723 823 707.3C914.3 691.7 1005.7 674.3 1097 673.3C1188.3 672.3 1279.7 687.7 1371.2 685C1462.7 682.3 1554.3 661.7 1645.8 657C1737.3 652.3 1828.7 663.7 1874.3 669.3L1920 675L1920 1081L1874.3 1081C1828.7 1081 1737.3 1081 1645.8 1081C1554.3 1081 1462.7 1081 1371.2 1081C1279.7 1081 1188.3 1081 1097 1081C1005.7 1081 914.3 1081 823 1081C731.7 1081 640.3 1081 548.8 1081C457.3 1081 365.7 1081 274.2 1081C182.7 1081 91.3 1081 45.7 1081L0 1081Z" fill="#dd74e8"></path><path d="M0 724L45.7 730C91.3 736 182.7 748 274.2 738.3C365.7 728.7 457.3 697.3 548.8 704.5C640.3 711.7 731.7 757.3 823 759C914.3 760.7 1005.7 718.3 1097 698C1188.3 677.7 1279.7 679.3 1371.2 688C1462.7 696.7 1554.3 712.3 1645.8 728.2C1737.3 744 1828.7 760 1874.3 768L1920 776L1920 1081L1874.3 1081C1828.7 1081 1737.3 1081 1645.8 1081C1554.3 1081 1462.7 1081 1371.2 1081C1279.7 1081 1188.3 1081 1097 1081C1005.7 1081 914.3 1081 823 1081C731.7 1081 640.3 1081 548.8 1081C457.3 1081 365.7 1081 274.2 1081C182.7 1081 91.3 1081 45.7 1081L0 1081Z" fill="#c15fdb"></path><path d="M0 831L45.7 817.2C91.3 803.3 182.7 775.7 274.2 782.5C365.7 789.3 457.3 830.7 548.8 850.3C640.3 870 731.7 868 823 856.8C914.3 845.7 1005.7 825.3 1097 819.7C1188.3 814 1279.7 823 1371.2 830.3C1462.7 837.7 1554.3 843.3 1645.8 842.8C1737.3 842.3 1828.7 835.7 1874.3 832.3L1920 829L1920 1081L1874.3 1081C1828.7 1081 1737.3 1081 1645.8 1081C1554.3 1081 1462.7 1081 1371.2 1081C1279.7 1081 1188.3 1081 1097 1081C1005.7 1081 914.3 1081 823 1081C731.7 1081 640.3 1081 548.8 1081C457.3 1081 365.7 1081 274.2 1081C182.7 1081 91.3 1081 45.7 1081L0 1081Z" fill="#a44acd"></path><path d="M0 890L45.7 878.3C91.3 866.7 182.7 843.3 274.2 840.2C365.7 837 457.3 854 548.8 859C640.3 864 731.7 857 823 852C914.3 847 1005.7 844 1097 854.5C1188.3 865 1279.7 889 1371.2 887.8C1462.7 886.7 1554.3 860.3 1645.8 849.7C1737.3 839 1828.7 844 1874.3 846.5L1920 849L1920 1081L1874.3 1081C1828.7 1081 1737.3 1081 1645.8 1081C1554.3 1081 1462.7 1081 1371.2 1081C1279.7 1081 1188.3 1081 1097 1081C1005.7 1081 914.3 1081 823 1081C731.7 1081 640.3 1081 548.8 1081C457.3 1081 365.7 1081 274.2 1081C182.7 1081 91.3 1081 45.7 1081L0 1081Z" fill="#8536c1"></path><path d="M0 961L45.7 952.8C91.3 944.7 182.7 928.3 274.2 929.3C365.7 930.3 457.3 948.7 548.8 943.5C640.3 938.3 731.7 909.7 823 896C914.3 882.3 1005.7 883.7 1097 884.2C1188.3 884.7 1279.7 884.3 1371.2 894.8C1462.7 905.3 1554.3 926.7 1645.8 935.2C1737.3 943.7 1828.7 939.3 1874.3 937.2L1920 935L1920 1081L1874.3 1081C1828.7 1081 1737.3 1081 1645.8 1081C1554.3 1081 1462.7 1081 1371.2 1081C1279.7 1081 1188.3 1081 1097 1081C1005.7 1081 914.3 1081 823 1081C731.7 1081 640.3 1081 548.8 1081C457.3 1081 365.7 1081 274.2 1081C182.7 1081 91.3 1081 45.7 1081L0 1081Z" fill="#6424b4"></path><path d="M0 960L45.7 959.8C91.3 959.7 182.7 959.3 274.2 968.7C365.7 978 457.3 997 548.8 1007.3C640.3 1017.7 731.7 1019.3 823 1011.8C914.3 1004.3 1005.7 987.7 1097 980.2C1188.3 972.7 1279.7 974.3 1371.2 979.2C1462.7 984 1554.3 992 1645.8 989C1737.3 986 1828.7 972 1874.3 965L1920 958L1920 1081L1874.3 1081C1828.7 1081 1737.3 1081 1645.8 1081C1554.3 1081 1462.7 1081 1371.2 1081C1279.7 1081 1188.3 1081 1097 1081C1005.7 1081 914.3 1081 823 1081C731.7 1081 640.3 1081 548.8 1081C457.3 1081 365.7 1081 274.2 1081C182.7 1081 91.3 1081 45.7 1081L0 1081Z" fill="#3b12a8"></path></svg>